<?xml version="1.0" encoding="utf-8"?>
<!-- Generator: Adobe Illustrator 18.1.1, SVG Export Plug-In . SVG Version: 6.00 Build 0)  -->
<!DOCTYPE svg PUBLIC "-//W3C//DTD SVG 1.1//EN" "http://www.w3.org/Graphics/SVG/1.1/DTD/svg11.dtd">
<svg version="1.1" id="Layer_1" xmlns="http://www.w3.org/2000/svg" xmlns:xlink="http://www.w3.org/1999/xlink" x="0px" y="0px"
	 viewBox="0 0 2000 2000" enable-background="new 0 0 2000 2000" xml:space="preserve">
<g>
	<circle cx="1000" cy="1000" r="946.5"/>
	<g>
		<path fill="#FFFFFF" d="M114.4,930.4c2.4,0.2,4.7,0.6,7.1,0.6c29.4,0,58.8,0,88.2,0c2.2,0,4.3,0,6.6,0c1.1,4.1,1.2,6.8-2.8,9.4
			c-5.3,3.4-6,9.1-4.2,15c7.6,25.6,15.3,51.3,23.3,77.8c0.8-1.8,1.5-2.8,1.8-4c3.9-15.1,8-30.1,11.6-45.3c0.7-2.9,0.4-6.3-0.4-9.2
			c-1.5-6.2-3.6-12.3-5.6-18.3c-3.4-10.4-6.8-14.2-16.3-18.4c0-2.1,0-4.3,0-6.7c35.5,0,70.6,0,106.3,0c0.1,2.3,0.2,4.4,0.3,6.8
			c-3.5,0.8-6.8,1.2-10,2.3c-6.7,2.4-10.2,8.7-8.2,15.2c6.9,23.4,13.9,46.7,20.9,70c0.1,0.3,0.5,0.5,1.3,1.4
			c2.4-10.1,4.5-19.7,6.9-29.3c10.3-41.6,22.4-82.5,44.1-119.9c11.1-19.2,24.6-36.4,43.4-48.9c10.6-7.1,22.1-11.8,34.8-13.9
			c0.9-0.1,1.8-0.7,2.7-1.1c8.4,0,16.8,0,25.2,0c4.3,1.3,8.7,2.4,12.9,4c20.9,8.1,30,24.7,32.6,45.7c0.6,4.7,0.8,9.6,0.6,14.4
			c-0.7,21.3-20.6,36.3-41.3,31.5c-8.3-1.9-14.4-6.7-18.1-14.4c-4.8-10.1-5.1-20.5-2.1-31c2.9-10,11.3-15.8,22.7-16.6
			c3.8-0.3,7.6-0.3,11.3-1.2c5.6-1.3,7.2-4.9,4.1-9.8c-5.7-8.9-15-11.3-24.6-12.9c-23.5-4.1-39.9,8.3-54.4,24
			c-23.7,25.6-39.8,55.9-54.2,87.2c-25.6,55.5-43,113.5-53.7,173.6c-0.8,4.6-2.6,5.9-7,5.7c-8.8-0.3-17.6-0.3-26.4,0
			c-4.4,0.2-6.2-1.3-7.5-5.5c-10.7-35.8-21.6-71.5-32.5-107.3c-0.5-1.7-1.1-3.4-2.1-6.8c-2.4,9.3-4.5,17-6.5,24.8
			c-7.6,29.8-15.3,59.6-22.8,89.5c-1,3.9-2.5,5.5-6.8,5.4c-9.8-0.4-19.6-0.1-30-0.1c-2.1-6.6-4.2-13.2-6.2-19.8
			c-13.9-45.9-27.7-91.8-41.6-137.7c-4-13.3-9.3-17.3-23.4-17.7C114.4,936,114.4,933.2,114.4,930.4z"/>
		<path fill="#FFFFFF" d="M724.1,1106.3c0,2.5,0,4.7,0,7.2c-35,0-69.7,0-104.8,0c0-2.3,0-4.6,0-6.9c0.4-0.2,0.7-0.6,1-0.6
			c17.2-1.1,21.2-5.3,21.2-22.5c0-40.6,0-81.3,0-121.9c0-15-4.8-20-19.9-20.5c-0.8,0-1.5-0.2-2.5-0.3c0-2.4,0-4.5,0-7
			c29.8,0,59.5,0,89.9,0c0,6.6,0,13,0,19.5c0.4,0.3,0.7,0.6,1.1,0.9c11.4-17.6,28.4-24.4,48-24.7c19.3-0.3,37.4,3.8,50.8,20.6
			c10.5-17.7,28.1-19.5,45.9-20.6c15.8-1,30.1,2.9,42.6,12.8c9.6,7.6,14.9,16.9,14.7,29.8c-0.5,37.6-0.2,75.2-0.2,112.9
			c0,15,4.9,20.2,19.7,21c0.8,0,1.5,0.2,2.6,0.4c0,2.3,0,4.4,0,7.1c-34.9,0-69.7,0-104.9,0c0-2.3,0-4.4,0-7.1
			c11.9-2.7,15-11,14.9-22.6c-0.4-40.8-0.1-81.6-0.2-122.5c0-3.4-0.2-6.9-1.1-10.1c-2.8-10-12.2-12.8-20-6
			c-9.3,8.1-12,19.1-12.1,30.9c-0.2,20.8,0,41.6,0,62.4c0,16,0,32,0,48c0,11.7,3.2,16.1,14.5,19.8c0,2.2,0,4.6,0,7.2
			c-32.4,0-64.5,0-97,0c0-2.5,0-4.8,0-7.1c11.7-4.3,14.4-8.4,14.4-21c0-41,0-82.1,0-123.1c0-6.5,0-13.3-7.3-16.3
			c-5.1-2.1-11.8,1.6-17,8.8c-7.5,10.4-9.2,22.5-9.3,34.8c-0.2,32.8-0.1,65.6-0.1,98.5C709.2,1097.7,713.7,1103.1,724.1,1106.3z"/>
		<path fill="#FFFFFF" d="M1591,1173.9c6.7,5.3,14.9,6.1,22.3,3c7.4-3.1,14.6-7.6,20.4-13.1c11.5-11,22.6-35.1,24.3-49.8
			c-6.2,0-12.4-0.3-18.6,0.1c-4.4,0.3-6.3-1.6-7.9-5.3c-21.8-48.5-43.9-96.8-65.4-145.4c-5.7-12.9-15.2-19.3-28.2-22.8
			c0-2.1,0-4.2,0-6.8c38.6,0,77.1,0,116.2,0c0.1,2.1,0.2,4.3,0.3,6.5c-2.3,0.9-4.6,1.6-6.6,2.7c-7.4,3.9-9.1,8.5-5.8,16.1
			c11.2,26,22.5,52.1,33.7,78.1c0.7,1.5,1.6,3,2.6,4.9c5.3-21.9,9.9-43.1,15.5-64.1c9.2-34.6,20.7-68.5,39.3-99.4
			c13.3-22.1,29.4-41.5,53.4-52.8c16-7.6,32.8-10.1,50.3-7.1c23.8,4.2,40.9,23.2,44.1,49.7c1,8,1.4,16.5,0,24.4
			c-3.1,17-20.4,27.9-38.1,25.3c-17.3-2.6-29.3-17.9-28.4-36c0.9-16.9,14.6-30.5,31.4-31.3c1.2-0.1,2.6,0.2,3.6-0.2
			c3.8-1.7,7.5-3.7,11.2-5.5c-2.2-3.6-3.7-7.9-6.6-10.7c-9-8.5-35.8-11.6-51.1-1.5c-11.9,7.8-21.5,17.8-29.9,29.1
			c-23.2,31.2-39.2,66.3-54,102c-21.8,52.2-37.9,106.5-55.2,160.3c-5.1,15.9-11.4,31.2-22.8,43.8c-10.8,12-23.8,19.9-40.6,17.7
			c-17.5-2.3-30.8-17.2-34-36.5c-2.3-14-0.7-26.8,10.5-36.8c11.3-10.1,27.9-11.3,40.7-3.3c12.8,8,18.7,23.5,14.5,38.1
			c-4.1,14.6-17.1,24.3-32.6,24.4c-2.7,0-5.5,0-8.2,0C1591.2,1172.5,1591.1,1173.2,1591,1173.9z"/>
		<path fill="#FFFFFF" d="M1177.1,1113.6c0-2.5,0-4.6,0-7.7c2.2,0,4.3,0.1,6.4,0c8.8-0.4,15.6-7,15.6-15.8
			c0.1-44.4,0.1-88.8,0-133.3c0-9.1-7-15.5-16.2-15.7c-1.8,0-3.6,0-5.7,0c0-2.6,0-4.9,0-7.4c30,0,59.7,0,89.9,0c0,6.7,0,13,0,19.8
			c1.1-0.5,1.7-0.6,1.9-1c13.8-23.4,57.4-33.1,85.3-9.8c9,7.5,14.3,16.5,14.1,29c-0.5,36.8-0.2,73.6-0.2,110.4
			c0,18.7,3.3,22.4,22.1,24.2c0,2.2,0,4.5,0,7.2c-34.6,0-69.3,0-104.5,0c0-2.2,0-4.5,0-6.8c12.3-5,14.5-8.4,14.5-21.8
			c0-40.8,0-81.6,0-122.5c0-6.5,0-13.3-7.3-16.2c-5.1-2-12,1.8-16.9,8.9c-6.3,9-8.8,19.3-8.9,30c-0.2,35-0.1,70,0,105
			c0,8.1,4.4,12.9,14.5,16.2c0,2.2,0,4.6,0,7.2C1246.9,1113.6,1212.4,1113.6,1177.1,1113.6z"/>
		<path fill="#FFFFFF" d="M1016.3,943.7c5.6,3.6,11,6.5,15.8,10.3c10.6,8.1,14.4,19.1,11.4,31.9c-3,12.9-11.3,21.5-24.2,24.9
			c-25.4,6.7-47.4-15.3-42.1-41.9c2.7-13.4,10.7-22.5,22.4-28.8c15.9-8.6,33.3-11,51.1-10.7c17.6,0.3,35.3,1.6,51.5,9.4
			c6.7,3.2,13.1,7.7,18.7,12.6c5.8,5,8.1,11.9,8.1,19.9c-0.2,37.2-0.1,74.5,0,111.7c0,3.2,0.2,6.5,1.1,9.4c1.5,4.8,5.3,5.7,7.7,1.4
			c2.8-5.1,4.3-11,5.6-16.7c0.8-3.8,0.2-7.9,0.2-12.4c2.6,0,4.8,0,7,0c0,10.2,1,20.2-0.3,30c-1.3,9.9-8.6,16.2-17.9,19.2
			c-20.8,6.9-40.7,3.9-59.2-7.6c-4.1-2.6-7.3-6.7-11-10.3c-14.5,13.8-31.8,21.6-52.2,21.4c-25.2-0.3-43.9-14.5-48-36.2
			c-5.9-31.1,16.7-58.8,49.2-59.4c16-0.3,28.4-7.1,39-18.2c7.3-7.7,11.4-16.7,10.7-27.7c-0.4-6.6,0.4-13.2-0.3-19.8
			c-0.3-3.6-1.7-7.6-3.9-10.3C1049.6,937.3,1025.8,936,1016.3,943.7z M1060.9,1004.3c-5.9,5.5-11.6,9.9-16.1,15.5
			c-4.1,5.1-9.1,11.2-9.7,17.2c-1.7,17.2-1.9,34.7-1.6,52c0.1,3.3,4.2,7.8,7.6,9.5c2.4,1.2,7.4-0.6,10.1-2.7
			c6.4-4.8,9.5-12,9.6-19.9C1061.1,1052.4,1060.9,1028.8,1060.9,1004.3z"/>
		<path fill="#FFFFFF" d="M403.9,1023.3c0-51.9,42-93.9,93.8-94c52.6-0.1,94.6,42.2,94.6,95.1c-0.1,51.3-42.7,93.1-94.8,93
			C445.7,1117.4,403.8,1075.3,403.9,1023.3z M479.5,1023.6c-0.1,0-0.1,0-0.2,0c0,17.8-0.2,35.6,0.1,53.4c0.1,7.1,0.9,14.4,2.6,21.3
			c2.2,8.7,6.6,11.3,15.9,11.3c9.1,0,13.6-2.9,15.8-11.4c1.6-6.3,2.6-13,2.6-19.5c0.2-36.8,0.3-73.6,0-110.3
			c-0.1-6.9-1.3-13.9-3.1-20.6c-2.1-7.7-6.6-10.2-14.8-10.3c-8.8-0.1-13.3,2.4-15.8,9.9c-1.7,5.1-2.9,10.5-3,15.8
			C479.3,983.2,479.5,1003.4,479.5,1023.6z"/>
		<path fill="#FFFFFF" d="M1413,1113.5c0-2.6,0-4.7,0-7.3c2.2-0.1,4.1-0.2,6.1-0.3c9.4-0.4,16.2-7.1,16.3-16.5
			c0.1-71.4,0.1-142.8,0-214.3c0-9.8-6.9-16.4-16.6-16.7c-1.8,0-3.5,0-5.6,0c0-2.6,0-4.7,0-7.2c29.7,0,59.4,0,89.9,0
			c0,2.4,0,4.7,0,7c0,74.8,0,149.6,0,224.5c0,18,3.8,22.1,22.1,23.5c0,2.2,0,4.5,0,7.2C1488.1,1113.5,1450.8,1113.5,1413,1113.5z"/>
	</g>
</g>
</svg>
